<?xml version="1.0" encoding="utf-8"?>
<!-- Generator: Adobe Illustrator 16.0.0, SVG Export Plug-In . SVG Version: 6.00 Build 0)  -->
<!DOCTYPE svg PUBLIC "-//W3C//DTD SVG 1.1//EN" "http://www.w3.org/Graphics/SVG/1.1/DTD/svg11.dtd">
<svg version="1.1" id="레이어_1" xmlns="http://www.w3.org/2000/svg" xmlns:xlink="http://www.w3.org/1999/xlink" x="0px"
	 y="0px" width="200px" height="200px" viewBox="0 0 200 200" enable-background="new 0 0 200 200" xml:space="preserve">
<g>
	<path fill="#E8CACA" d="M53.991,99.328c0.063-0.023,0.125-0.047,0.185-0.07c0,0,4.659-1.706,7.178-2.743
		c0.038-0.08,0.071-0.161,0.118-0.238c0.143-0.232,0.318-0.45,0.459-0.652c1.321-1.899,3.17-3.513,5.087-4.789
		c1.5-1,3.772-2.374,5.661-1.746c1.795,0.614,1.536,2.846,0.701,4.07c-0.783,1.152-2.005,1.985-3.209,2.633
		c-1.104,0.592-2.302,1.093-3.521,1.382c-0.461,0.11-0.933,0.202-1.391,0.332c-0.287,0.08-0.978,0.233-1.586,0.231
		c-0.16,0.346-0.302,0.688-0.405,1.027c-1.091,3.678,2.279,3.722,5.122,2.584c2.961-1.2,5.545-3.278,7.173-5.466
		c0.001-0.002,0.002-0.005,0.003-0.007c0.015-0.021,0.032-0.043,0.047-0.064c0.134-0.183,0.274-0.364,0.394-0.548
		c0.008-0.01,0.017-0.014,0.025-0.022c0.51-0.689,1.038-1.368,1.498-2.094c0.207-0.325,0.399-0.66,0.583-0.999
		c0.252-0.472,0.559-0.927,0.842-1.378c0.174-0.272,0.286-0.638,0.51-0.952c0.258-0.368,0.878-0.171,1.267-0.072
		c0.7,0.178,0.654,0.57,0.306,1.271c-1.094,2.405-2.493,6.303-3.021,7.704c1.839-2.277,5.646-6.393,8.057-8.274
		c2.844-2.189,4.857-1.444,3.019,2.189c-0.438,0.831-1.27,2.757-1.663,3.457c1.53-1.397,4.073-3.502,6.039-4.246
		c0.525-0.197,1.213-0.491,1.789-0.373c0.307,0.063,0.492,0.235,0.576,0.535c0.127,0.454-0.285,0.844-0.5,1.219
		c-0.934,1.612-1.703,3.395-2.125,5.21c-0.054,0.236-0.102,0.478-0.133,0.718c-0.26,1.884,0.615,2.892,2.016,2.148
		c1.137-0.622,3.414-2.472,5.209-4.472c0.605-0.755,1.207-1.513,1.781-2.291c0.307-0.414,0.609-0.918,0.957-1.293
		c0.263-0.278,0.347-0.479,0.486-0.844c0.025-0.061,0,0,0.075-0.179c0.131-0.301,0.339-0.569,0.461-0.875
		c0.231-0.564,0.464-1.27,0.965-1.664c0.383-0.297,1.266-0.024,1.487,0.411c0.262,0.525-0.222,1.355-0.879,2.714
		c-1.314,2.625-2.496,4.946-2.629,6.348c-0.307,1.881,0.574,2.889,2.017,2.146c1.347-0.762,4.437-3.351,6.31-5.811
		c1.653-5.019,5.349-12.009,7.563-14.943c1.663-2.145,3.636-4.771,6.611-4.771c1.971,0,3.415,1.532,1.841,4.377
		c-3.593,6.261-8.758,11.385-14.227,15.935c-0.311,0.877-0.527,1.577-0.57,2.016c-0.265,2.144,0.35,4.509,2.888,3.064
		c1.434-0.771,3.927-2.954,5.579-4.877c0.076-0.175,0.156-0.345,0.24-0.508c0.964-1.927,2.144-3.371,3.546-4.597
		c1.928-1.84,3.547,0.218,2.98,0.655c-1.007,0.57-2.499,2.015-3.811,3.722c-0.702,0.921-2.407,4.466-1.229,5.297
		c0.794,0.615,2.323,0,3.593-1.225c1.739-1.68,3.305-3.504,4.803-5.397c0.76-0.956,1.506-1.925,2.259-2.885
		c0.72-0.919,1.694-2.845,3.108-2.018c1.119,0.66,0.681,2.065,0.244,3.039c-0.669,1.489-1.327,2.982-1.999,4.473
		c-0.571,1.274-1.144,2.547-1.731,3.815c-0.174,0.377-0.346,0.757-0.52,1.136c0.774-0.543,1.546-1.086,2.33-1.63
		c1.612-1.113,3.049-1.913,4.962-2.896c1.57-0.804,3.205-1.571,4.874-2.296c1.621-0.7,3.263-1.335,4.94-1.95
		c3.961-1.46,8.089-2.551,12.156-3.368c-4.148-30.122-29.976-53.326-61.236-53.326c-34.15,0-61.833,27.684-61.833,61.833
		c0,1.07,0.027,2.135,0.081,3.191C44.198,101.62,49.547,101.036,53.991,99.328z M105.271,87.399
		c0.056-0.229,0.187-0.395,0.362-0.547c0.324-0.279,0.662-0.545,1.004-0.81c0.318-0.252,1.502-1.444,1.864-0.714
		c0.274,0.545-0.131,1.317-0.407,1.787c-0.149,0.263-0.636,0.556-1.162,0.746C106.062,88.178,105.083,88.217,105.271,87.399z"/>
	<path fill="#E8CACA" d="M126.168,79.372c1.181-2.146,0.175-3.151-1.755-1.707c-2.666,2.059-4.9,5.209-6.781,8.58
		c-0.482,0.875-1.627,3.106-2.631,5.076c-0.48,1.01-0.876,2.06-1.225,3.022C118.064,91.412,123.848,83.836,126.168,79.372z"/>
	<path fill="#E8CACA" d="M121.481,116.451c3.323-2.671,4.815-7.18,6.653-10.902c-2.279,1.71-5.474,4.162-7.749,6.48
		C117.06,115.357,118.194,119.076,121.481,116.451z"/>
	<path fill="#E8CACA" d="M68.311,95.48c0.954-0.445,1.706-0.991,2.528-1.618c0.744-0.568,2.058-1.883,1.97-2.845
		c-0.043-1.229-1.617-0.57-2.23-0.264c-1.215,0.556-2.299,1.399-3.277,2.293c-0.573,0.525-1.119,1.083-1.621,1.672
		c-0.249,0.292-1.019,1.204-1.188,1.364c-0.1,0.099-0.161,0.241-0.26,0.345c0.228-0.034,0.476-0.044,0.476-0.044
		C65.98,96.341,67.168,96.019,68.311,95.48z"/>
	<path fill="#E8CACA" d="M143.476,96.739c-4.653,2.171-8.343,4.686-11.979,7.271c-1.489,3.248-3.042,6.504-4.939,9.509
		c-1.617,2.408-4.2,5.339-7.179,4.812c-0.309-0.086-0.658-0.174-0.876-0.303c-2.757-1.356-1.442-3.984,0.876-6.698
		c2.191-2.54,6.742-5.562,9.59-7.444c2.01-4.116,4.553-9.762,5.211-11.774c-2.363,2.714-6.697,10.067-10.688,10.067
		c-2.814,0-3.386-2.055-3.01-4.119c-1.182,1.296-2.659,2.687-3.946,3.64c-0.876,0.657-1.883,0.962-2.716,0.962
		c-2.627,0-3.414-1.487-3.326-3.503c0.031-0.523,0.139-1.138,0.301-1.812c-1.204,1.454-2.917,3.144-4.416,4.222
		c-1.398,1.051-4.638,2.102-5.514-0.526c-0.35-1.006,0.395-3.368,1.312-5.383c-0.083,0.101-0.168,0.214-0.256,0.332
		c-1.028,1.595-3.425,4.132-5.43,5.575c-1.443,1.052-4.684,2.102-5.559-0.525c-0.349-1.182,0.134-3.806,0.744-5.342
		c0.309-0.787,0.79-1.97,1.228-2.626c-1.664,0.652-3.075,1.891-4.339,3.12c-0.575,0.559-1.13,1.142-1.678,1.726
		c-0.498,0.526-2.193,2.393-2.589,1.029c-0.197-0.691,0.496-1.975,0.791-2.592c0.523-1.104,1.07-2.199,1.641-3.283
		c0.792-1.401,0.397-2.321-2.798,0.438c-1.893,1.724-3.371,3.924-4.893,5.967c-0.497,0.666-2.615,3.792-3.666,2.498
		c-0.543-0.669,0.294-2.342,0.525-3.011c0.247-0.709,0.492-1.423,0.731-2.137c0.125-0.363,0.252-0.729,0.377-1.094
		c0.104-0.316,0.176-0.765,0.354-1.041c-0.51,0.785-1.086,1.557-1.578,2.089c-1.741,2.384-4.166,4.342-6.823,5.443
		c-4.046,1.625-9.011,0.294-8.112-4.078c-0.27,0.113-0.54,0.225-0.806,0.333c-2.992,1.22-6.131,2.088-9.302,2.693
		c-2.786,0.532-5.624,0.857-8.46,0.874c-1.154,0.007-2.309-0.027-3.457-0.083c1.96,32.382,28.831,58.042,61.707,58.042
		c34.149,0,61.833-27.685,61.833-61.834c0-2.487-0.164-4.935-0.449-7.346c-3.667,0.794-7.262,1.68-10.979,3.045
		C148.374,94.683,145.845,95.634,143.476,96.739z"/>
	<path fill="#FFFFFF" d="M64.162,96.505c0.032-0.018,0.045-0.052,0.07-0.077c-0.086,0.013-0.161,0.029-0.227,0.051
		c-0.057,0.051-0.127,0.104-0.207,0.161C63.968,96.586,64.104,96.537,64.162,96.505z"/>
	<path fill="#FFFFFF" d="M64.005,96.479c0.065-0.021,0.141-0.038,0.227-0.051c0.1-0.104,0.161-0.246,0.26-0.345
		c0.169-0.16,0.94-1.072,1.188-1.364c0.502-0.589,1.048-1.146,1.621-1.672c0.978-0.894,2.062-1.737,3.277-2.293
		c0.613-0.307,2.187-0.965,2.23,0.264c0.088,0.962-1.226,2.276-1.97,2.845c-0.822,0.627-1.575,1.173-2.528,1.618
		c-1.143,0.538-2.331,0.86-3.604,0.903c0,0-0.248,0.01-0.476,0.044c-0.024,0.025-0.038,0.06-0.07,0.077
		c-0.058,0.032-0.194,0.081-0.364,0.135c-0.025,0.018-0.044,0.034-0.072,0.053c-0.281,0.186-0.573,0.358-0.874,0.521
		c0.199,0.064,0.376,0.155,0.619,0.24c0.093,0.033,0.199,0.045,0.302,0.062c-0.037,0.074-0.066,0.147-0.1,0.222
		c0.608,0.002,1.299-0.151,1.586-0.231c0.458-0.13,0.93-0.222,1.391-0.332c1.22-0.289,2.417-0.79,3.521-1.382
		c1.205-0.647,2.427-1.48,3.209-2.633c0.834-1.225,1.094-3.456-0.701-4.07c-1.888-0.628-4.161,0.746-5.661,1.746
		c-1.917,1.276-3.766,2.89-5.087,4.789c-0.142,0.202-0.317,0.42-0.459,0.652c-0.047,0.077-0.08,0.158-0.118,0.238
		c0.881-0.362,1.505-0.645,1.57-0.741C63.106,95.503,64.902,95.678,64.005,96.479z"/>
	<path fill="#FFFFFF" d="M76.008,95.264c-0.12,0.184-0.26,0.365-0.394,0.548c0.135-0.193,0.279-0.381,0.419-0.57
		C76.025,95.25,76.016,95.254,76.008,95.264z"/>
	<path fill="#FFFFFF" d="M75.563,95.883c-1.628,2.188-4.212,4.266-7.173,5.466c-2.843,1.138-6.213,1.094-5.122-2.584
		c0.103-0.339,0.245-0.682,0.405-1.027c-0.475,0-0.901-0.093-1.04-0.4c-0.002-0.005-0.001-0.008-0.003-0.014
		c-0.58,0.302-1.181,0.572-1.783,0.824c-0.899,4.372,4.065,5.703,8.112,4.078c2.658-1.102,5.082-3.06,6.823-5.443
		c-0.057,0.062-0.118,0.134-0.172,0.188C75.171,97.451,75.17,96.453,75.563,95.883z"/>
	<path fill="#FFFFFF" d="M63.471,97.453c-0.243-0.085-0.42-0.176-0.619-0.24c-0.072,0.039-0.148,0.073-0.221,0.11
		c0.002,0.006,0,0.009,0.003,0.014c0.139,0.308,0.565,0.4,1.04,0.4c0.034-0.074,0.063-0.147,0.1-0.222
		C63.67,97.498,63.563,97.486,63.471,97.453z"/>
	<path fill="#FFFFFF" d="M75.567,95.876c-0.001,0.002-0.002,0.005-0.003,0.007c0.018-0.024,0.034-0.048,0.051-0.071
		C75.599,95.833,75.582,95.854,75.567,95.876z"/>
	<path fill="#FFFFFF" d="M99.988,97.236c0.107-0.133,0.207-0.271,0.313-0.403c-1.795,2-4.072,3.85-5.209,4.472
		c-1.4,0.743-2.275-0.265-2.016-2.148c0.031-0.24,0.079-0.481,0.133-0.718c0.422-1.815,1.191-3.598,2.125-5.21
		c0.215-0.375,0.627-0.765,0.5-1.219c-0.084-0.3-0.27-0.472-0.576-0.535c-0.576-0.118-1.264,0.176-1.789,0.373
		c-1.966,0.744-4.509,2.849-6.039,4.246c0.393-0.7,1.224-2.626,1.663-3.457c1.838-3.634-0.175-4.379-3.019-2.189
		c-2.411,1.882-6.217,5.997-8.057,8.274c0.528-1.401,1.927-5.299,3.021-7.704c0.348-0.701,0.394-1.094-0.306-1.271
		c-0.389-0.099-1.009-0.296-1.267,0.072c-0.224,0.314-0.335,0.68-0.51,0.952c-0.283,0.451-0.589,0.906-0.842,1.378
		c-0.185,0.339-0.376,0.674-0.583,0.999c-0.46,0.726-0.987,1.404-1.498,2.094c0.17-0.189,0.374-0.191,0.457-0.108
		c0.218,0.087,0.218,0.305,0.045,0.527c-0.233,0.384-0.486,0.757-0.752,1.122c0.492-0.532,1.067-1.304,1.578-2.089
		c-0.178,0.276-0.25,0.725-0.354,1.041c-0.125,0.364-0.252,0.73-0.377,1.094c-0.239,0.714-0.484,1.428-0.731,2.137
		c-0.231,0.669-1.068,2.342-0.525,3.011c1.051,1.294,3.169-1.832,3.666-2.498c1.521-2.043,3-4.243,4.893-5.967
		c3.195-2.76,3.589-1.84,2.798-0.438c-0.57,1.084-1.118,2.18-1.641,3.283c-0.295,0.617-0.988,1.9-0.791,2.592
		c0.396,1.363,2.091-0.503,2.589-1.029c0.548-0.584,1.104-1.167,1.678-1.726c1.265-1.229,2.676-2.468,4.339-3.12
		c-0.438,0.656-0.919,1.839-1.228,2.626c-0.609,1.536-1.092,4.16-0.744,5.342c0.875,2.627,4.116,1.577,5.559,0.525
		c2.005-1.443,4.401-3.98,5.43-5.575c-0.332,0.445-0.727,1.024-1.449,1.855C100.031,98.328,99.596,97.759,99.988,97.236z"/>
	<path fill="#FFFFFF" d="M76.49,95.133c-0.083-0.083-0.286-0.081-0.457,0.108c-0.14,0.189-0.284,0.377-0.419,0.57
		c-0.017,0.023-0.033,0.047-0.051,0.071c-0.393,0.57-0.392,1.568,0.047,1.088c0.054-0.055,0.115-0.127,0.172-0.188
		c0.267-0.365,0.52-0.738,0.752-1.122C76.708,95.438,76.708,95.22,76.49,95.133z"/>
	<path fill="#FFFFFF" d="M105.023,101.307c-1.442,0.742-2.323-0.266-2.017-2.146c0.133-1.401,1.314-3.723,2.629-6.348
		c0.657-1.358,1.141-2.188,0.879-2.714c-0.222-0.436-1.104-0.708-1.487-0.411c-0.501,0.395-0.733,1.1-0.965,1.664
		c-0.122,0.306-0.33,0.574-0.461,0.875c-0.075,0.179-0.05,0.118-0.075,0.179c-0.14,0.364-0.224,0.565-0.486,0.844
		c-0.348,0.375-0.65,0.879-0.957,1.293c-0.574,0.778-1.176,1.536-1.781,2.291c0.48-0.534,0.934-1.078,1.312-1.614
		c0.219-0.305,0.787-0.045,0.568,0.35c-0.069,0.128-0.169,0.276-0.262,0.422c0.088-0.118,0.173-0.231,0.256-0.332
		c-0.918,2.015-1.662,4.377-1.312,5.383c0.876,2.628,4.115,1.577,5.514,0.526c1.499-1.078,3.212-2.768,4.416-4.222
		c0.139-0.572,0.324-1.196,0.539-1.85C109.46,97.956,106.37,100.545,105.023,101.307z"/>
	<path fill="#FFFFFF" d="M101.614,95.219c-0.379,0.536-0.832,1.08-1.312,1.614c-0.106,0.133-0.206,0.271-0.313,0.403
		c-0.393,0.522,0.043,1.092,0.483,0.609c0.723-0.831,1.117-1.41,1.449-1.855c0.093-0.146,0.192-0.294,0.262-0.422
		C102.401,95.174,101.833,94.914,101.614,95.219z"/>
	<path fill="#FFFFFF" d="M106.933,87.862c0.526-0.19,1.013-0.483,1.162-0.746c0.276-0.47,0.682-1.242,0.407-1.787
		c-0.362-0.73-1.546,0.462-1.864,0.714c-0.342,0.265-0.68,0.53-1.004,0.81c-0.176,0.152-0.307,0.317-0.362,0.547
		C105.083,88.217,106.062,88.178,106.933,87.862z"/>
	<path fill="#FFFFFF" d="M115.439,101.174c-2.538,1.444-3.152-0.921-2.888-3.064c0.043-0.438,0.26-1.139,0.57-2.016
		c5.469-4.55,10.634-9.674,14.227-15.935c1.574-2.845,0.13-4.377-1.841-4.377c-2.976,0-4.948,2.626-6.611,4.771
		c-2.215,2.935-5.91,9.925-7.563,14.943c0.07-0.092,0.15-0.185,0.217-0.275c0.215-0.306,0.741-0.045,0.518,0.349
		c-0.261,0.483-0.719,1.107-1.273,1.776c-0.162,0.675-0.27,1.289-0.301,1.812c-0.088,2.016,0.699,3.503,3.326,3.503
		c0.833,0,1.84-0.305,2.716-0.962c1.287-0.953,2.765-2.344,3.946-3.64c0.11-0.604,0.297-1.208,0.537-1.763
		C119.366,98.22,116.873,100.402,115.439,101.174z M115.001,91.321c1.004-1.97,2.148-4.201,2.631-5.076
		c1.881-3.371,4.115-6.521,6.781-8.58c1.93-1.444,2.936-0.438,1.755,1.707c-2.32,4.464-8.104,12.04-12.392,14.972
		C114.125,93.381,114.521,92.331,115.001,91.321z"/>
	<path fill="#FFFFFF" d="M111.55,95.221c-0.066,0.091-0.146,0.184-0.217,0.275c-0.215,0.653-0.4,1.277-0.539,1.85
		c0.555-0.669,1.013-1.293,1.273-1.776C112.291,95.176,111.765,94.915,111.55,95.221z"/>
	<path fill="#FFFFFF" d="M134.754,96.854c0.672-1.49,1.33-2.983,1.999-4.473c0.437-0.974,0.875-2.379-0.244-3.039
		c-1.414-0.827-2.389,1.099-3.108,2.018c-0.753,0.96-1.499,1.929-2.259,2.885c-1.498,1.894-3.063,3.718-4.803,5.397
		c-1.27,1.225-2.799,1.84-3.593,1.225c-1.179-0.831,0.526-4.376,1.229-5.297c1.312-1.707,2.804-3.151,3.811-3.722
		c0.566-0.438-1.053-2.495-2.98-0.655c-1.402,1.226-2.582,2.67-3.546,4.597c-0.084,0.163-0.164,0.333-0.24,0.508
		c0.319-0.371,0.618-0.736,0.859-1.076c0.218-0.306,0.739-0.045,0.478,0.438c-0.359,0.631-1.046,1.493-1.874,2.401
		c-0.376,2.064,0.195,4.119,3.01,4.119c3.99,0,8.324-7.354,10.688-10.067c-0.658,2.013-3.201,7.658-5.211,11.774
		c-2.848,1.883-7.398,4.904-9.59,7.444c-2.318,2.714-3.633,5.342-0.876,6.698c0.218,0.129,0.567,0.217,0.876,0.303
		c2.979,0.527,5.562-2.403,7.179-4.812c1.897-3.005,3.45-6.261,4.939-9.509c-0.856,0.609-1.712,1.221-2.574,1.835l-0.431-1.234
		c0.995-0.699,1.998-1.395,2.989-2.091c0.34-0.239,0.683-0.478,1.022-0.716c0.174-0.379,0.346-0.759,0.52-1.136
		C133.61,99.4,134.183,98.128,134.754,96.854z M121.481,116.451c-3.287,2.625-4.422-1.094-1.096-4.422
		c2.275-2.318,5.47-4.771,7.749-6.48C126.297,109.271,124.805,113.78,121.481,116.451z"/>
	<path fill="#FFFFFF" d="M121.878,95.221c-0.241,0.34-0.54,0.705-0.859,1.076c-0.24,0.555-0.427,1.158-0.537,1.763
		c0.828-0.908,1.515-1.771,1.874-2.401C122.617,95.176,122.096,94.915,121.878,95.221z"/>
	<path fill="#FFFFFF" d="M62.678,96.897c-0.119,0.014-0.224,0.02-0.287,0.006c-0.215-0.046-0.154-0.104-0.335,0.06
		c-0.06,0.056-0.156,0.137-0.259,0.211c0.202-0.022,0.403-0.043,0.608-0.039c0.071,0.002,0.127,0.013,0.188,0.021
		C62.585,97.052,62.614,96.965,62.678,96.897z"/>
	<path fill="#FFFFFF" d="M50.74,101.174c3.17-0.605,6.31-1.474,9.302-2.693c0.266-0.108,0.536-0.22,0.806-0.333
		c0.06-0.291,0.146-0.597,0.26-0.915c0.031-0.001,0.062-0.007,0.093-0.008c-0.002-0.038,0.001-0.082,0-0.138
		c-0.003-0.197,0.064-0.388,0.152-0.572c-2.52,1.037-7.178,2.743-7.178,2.743c-0.06,0.023-0.121,0.047-0.185,0.07
		c-4.444,1.708-9.793,2.292-15.214,2.036c0.01,0.201,0.034,0.399,0.046,0.601c1.148,0.056,2.303,0.09,3.457,0.083
		C45.117,102.031,47.954,101.706,50.74,101.174z"/>
	<path fill="#FFFFFF" d="M64.005,96.479c-0.017,0.005-0.041,0.009-0.055,0.015c-0.264,0.108-1.009,0.126-1.271,0.404
		c0.322-0.037,0.787-0.154,1.12-0.258C63.878,96.583,63.948,96.529,64.005,96.479z"/>
	<path fill="#FFFFFF" d="M63.726,96.692c0.028-0.019,0.047-0.035,0.072-0.053c-0.333,0.104-0.797,0.221-1.12,0.258
		c-0.064,0.067-0.093,0.154-0.085,0.259c0.093,0.013,0.18,0.031,0.258,0.057C63.152,97.051,63.445,96.878,63.726,96.692z"/>
	<path fill="#FFFFFF" d="M62.056,96.963c0.182-0.164,0.12-0.105,0.335-0.06c0.063,0.014,0.167,0.008,0.287-0.006
		c0.263-0.278,1.007-0.296,1.271-0.404c0.014-0.006,0.039-0.01,0.055-0.015c0.897-0.801-0.898-0.976-1.081-0.705
		c-0.065,0.097-0.689,0.379-1.57,0.741c-0.088,0.185-0.156,0.375-0.152,0.572c0.001,0.056-0.002,0.1,0,0.138
		c0.199-0.011,0.398-0.029,0.596-0.051C61.9,97.1,61.996,97.019,62.056,96.963z"/>
	<path fill="#FFFFFF" d="M62.593,97.156c-0.061-0.009-0.117-0.02-0.188-0.021c-0.205-0.004-0.406,0.017-0.608,0.039
		c-0.144,0.104-0.305,0.194-0.423,0.178c-0.142-0.02-0.169-0.062-0.173-0.127c-0.031,0.001-0.062,0.007-0.093,0.008
		c-0.114,0.318-0.2,0.624-0.26,0.915c0.602-0.252,1.203-0.522,1.783-0.824C62.604,97.261,62.597,97.208,62.593,97.156z"/>
	<path fill="#FFFFFF" d="M62.593,97.156c0.004,0.052,0.01,0.104,0.037,0.167c0.073-0.037,0.149-0.071,0.221-0.11
		C62.773,97.188,62.686,97.169,62.593,97.156z"/>
	<path fill="#FFFFFF" d="M61.374,97.352c0.118,0.017,0.279-0.073,0.423-0.178c-0.198,0.021-0.397,0.04-0.596,0.051
		C61.205,97.289,61.232,97.332,61.374,97.352z"/>
	<path fill="#FFFFFF" d="M149.609,93.033c-1.678,0.615-3.319,1.25-4.94,1.95c-1.669,0.725-3.304,1.492-4.874,2.296
		c-1.913,0.982-3.35,1.782-4.962,2.896c-0.784,0.544-1.556,1.087-2.33,1.63c-0.334,0.733-0.669,1.469-1.007,2.206
		c3.637-2.586,7.326-5.101,11.979-7.271c2.369-1.105,4.898-2.057,7.458-2.867c3.718-1.365,7.312-2.251,10.979-3.045
		c-0.046-0.389-0.095-0.776-0.147-1.162C157.698,90.482,153.57,91.573,149.609,93.033z"/>
	<path fill="#FFFFFF" d="M128.491,104.611l0.431,1.234c0.862-0.614,1.718-1.226,2.574-1.835c0.338-0.737,0.673-1.473,1.007-2.206
		c-0.34,0.238-0.683,0.477-1.022,0.716C130.489,103.217,129.486,103.912,128.491,104.611z"/>
</g>
</svg>
